<mxfile host="app.diagrams.net" modified="2024-04-07T01:06:33.715Z" agent="Mozilla/5.0 (Windows NT 10.0; Win64; x64) AppleWebKit/537.36 (KHTML, like Gecko) Chrome/123.0.0.0 Safari/537.36 Edg/123.0.0.0" etag="e333AMdXt61dGx4jvj99" version="24.2.2" type="google">
  <diagram name="Page-1" id="97916047-d0de-89f5-080d-49f4d83e522f">
    <mxGraphModel grid="1" page="1" gridSize="10" guides="1" tooltips="1" connect="1" arrows="1" fold="1" pageScale="1.5" pageWidth="1169" pageHeight="827" background="none" math="0" shadow="0">
      <root>
        <mxCell id="0" />
        <mxCell id="1" parent="0" />
        <mxCell id="3" value="المدير العام" style="rounded=1;fillColor=#10739E;strokeColor=none;shadow=1;gradientColor=none;fontStyle=1;fontColor=#FFFFFF;fontSize=27;" vertex="1" parent="1">
          <mxGeometry x="1640" y="220" width="220" height="60" as="geometry" />
        </mxCell>
        <mxCell id="4" value="إدارة المشتريات" style="rounded=1;fillColor=#10739E;strokeColor=none;shadow=1;gradientColor=none;fontStyle=1;fontColor=#FFFFFF;fontSize=23;" vertex="1" parent="1">
          <mxGeometry x="680" y="500" width="200" height="60" as="geometry" />
        </mxCell>
        <mxCell id="5" value="إدارة المبيعات" style="rounded=1;fillColor=#10739E;strokeColor=none;shadow=1;gradientColor=none;fontStyle=1;fontColor=#FFFFFF;fontSize=23;" vertex="1" parent="1">
          <mxGeometry x="1070" y="500" width="200" height="60" as="geometry" />
        </mxCell>
        <mxCell id="6" value="إدارة المخزون" style="rounded=1;fillColor=#10739E;strokeColor=none;shadow=1;gradientColor=none;fontStyle=1;fontColor=#FFFFFF;fontSize=23;" vertex="1" parent="1">
          <mxGeometry x="1650" y="510" width="200" height="60" as="geometry" />
        </mxCell>
        <mxCell id="27" value="مساعد مبيعات" style="rounded=1;fillColor=#10739E;strokeColor=none;shadow=1;gradientColor=none;fontStyle=1;fontColor=#FFFFFF;fontSize=23;" vertex="1" parent="1">
          <mxGeometry x="928" y="780" width="200" height="60" as="geometry" />
        </mxCell>
        <mxCell id="31" value="" style="edgeStyle=elbowEdgeStyle;elbow=vertical;strokeWidth=4;endArrow=block;endFill=1;fontStyle=1;strokeColor=#23445D;entryX=0.5;entryY=0;entryDx=0;entryDy=0;" edge="1" parent="1" target="4">
          <mxGeometry x="22" y="165.5" width="100" height="100" as="geometry">
            <mxPoint x="1748" y="280" as="sourcePoint" />
            <mxPoint x="780" y="480" as="targetPoint" />
          </mxGeometry>
        </mxCell>
        <mxCell id="32" value="" style="edgeStyle=elbowEdgeStyle;elbow=vertical;strokeWidth=4;endArrow=block;endFill=1;fontStyle=1;strokeColor=#23445D;" edge="1" parent="1" target="6">
          <mxGeometry x="22" y="165.5" width="100" height="100" as="geometry">
            <mxPoint x="1750" y="370" as="sourcePoint" />
            <mxPoint x="900" y="195.5" as="targetPoint" />
            <Array as="points">
              <mxPoint x="1750" y="390" />
            </Array>
          </mxGeometry>
        </mxCell>
        <mxCell id="53" value="" style="edgeStyle=elbowEdgeStyle;elbow=vertical;strokeWidth=4;endArrow=block;endFill=1;fontStyle=1;strokeColor=#23445D;" edge="1" parent="1">
          <mxGeometry x="72" y="195.5" width="100" height="100" as="geometry">
            <mxPoint x="1178" y="390" as="sourcePoint" />
            <mxPoint x="1178" y="500" as="targetPoint" />
          </mxGeometry>
        </mxCell>
        <mxCell id="yfqfKN1hTtihbw3j2L1H-56" value="" style="edgeStyle=elbowEdgeStyle;elbow=vertical;strokeWidth=4;endArrow=block;endFill=1;fontStyle=1;strokeColor=#23445D;exitX=0.5;exitY=1;exitDx=0;exitDy=0;entryX=0.57;entryY=0.006;entryDx=0;entryDy=0;entryPerimeter=0;" edge="1" parent="1" source="3" target="yfqfKN1hTtihbw3j2L1H-58">
          <mxGeometry x="22" y="165.5" width="100" height="100" as="geometry">
            <mxPoint x="1656.5" y="280" as="sourcePoint" />
            <mxPoint x="2964.5" y="500" as="targetPoint" />
            <Array as="points">
              <mxPoint x="2360.5" y="390" />
              <mxPoint x="2550.5" y="390" />
            </Array>
          </mxGeometry>
        </mxCell>
        <mxCell id="yfqfKN1hTtihbw3j2L1H-57" value="إدارة التسويق" style="rounded=1;fillColor=#10739E;strokeColor=none;shadow=1;gradientColor=none;fontStyle=1;fontColor=#FFFFFF;fontSize=23;" vertex="1" parent="1">
          <mxGeometry x="2258" y="510" width="200" height="60" as="geometry" />
        </mxCell>
        <mxCell id="yfqfKN1hTtihbw3j2L1H-58" value="إدارة العملاء" style="rounded=1;fillColor=#10739E;strokeColor=none;shadow=1;gradientColor=none;fontStyle=1;fontColor=#FFFFFF;fontSize=23;" vertex="1" parent="1">
          <mxGeometry x="2850.5" y="510" width="200" height="60" as="geometry" />
        </mxCell>
        <mxCell id="yfqfKN1hTtihbw3j2L1H-59" value="" style="edgeStyle=elbowEdgeStyle;elbow=vertical;strokeWidth=4;endArrow=block;endFill=1;fontStyle=1;strokeColor=#23445D;entryX=0.547;entryY=-0.013;entryDx=0;entryDy=0;entryPerimeter=0;" edge="1" parent="1">
          <mxGeometry x="22" y="165.5" width="100" height="100" as="geometry">
            <mxPoint x="2368.6" y="390.28" as="sourcePoint" />
            <mxPoint x="2367.9999999999995" y="510" as="targetPoint" />
          </mxGeometry>
        </mxCell>
        <mxCell id="yfqfKN1hTtihbw3j2L1H-64" value="" style="edgeStyle=elbowEdgeStyle;elbow=vertical;strokeWidth=4;endArrow=block;endFill=1;fontStyle=1;strokeColor=#23445D;entryX=0.75;entryY=0;entryDx=0;entryDy=0;exitX=0.537;exitY=1.077;exitDx=0;exitDy=0;exitPerimeter=0;" edge="1" parent="1" source="5">
          <mxGeometry x="22" y="165.5" width="100" height="100" as="geometry">
            <mxPoint x="1128" y="560" as="sourcePoint" />
            <mxPoint x="1030.5" y="780" as="targetPoint" />
            <Array as="points">
              <mxPoint x="1070.5" y="660" />
            </Array>
          </mxGeometry>
        </mxCell>
        <mxCell id="yfqfKN1hTtihbw3j2L1H-65" value="" style="edgeStyle=elbowEdgeStyle;elbow=vertical;strokeWidth=4;endArrow=block;endFill=1;fontStyle=1;strokeColor=#23445D;" edge="1" parent="1">
          <mxGeometry x="22" y="165.5" width="100" height="100" as="geometry">
            <mxPoint x="1177.5" y="560" as="sourcePoint" />
            <mxPoint x="1327.5" y="780" as="targetPoint" />
            <Array as="points">
              <mxPoint x="1297.5" y="660" />
            </Array>
          </mxGeometry>
        </mxCell>
        <mxCell id="yfqfKN1hTtihbw3j2L1H-66" value="مدير قسم" style="rounded=1;fillColor=#10739E;strokeColor=none;shadow=1;gradientColor=none;fontStyle=1;fontColor=#FFFFFF;fontSize=23;" vertex="1" parent="1">
          <mxGeometry x="1219.5" y="780" width="200" height="60" as="geometry" />
        </mxCell>
        <mxCell id="yfqfKN1hTtihbw3j2L1H-67" value="عامل تخزين" style="rounded=1;fillColor=#10739E;strokeColor=none;shadow=1;gradientColor=none;fontStyle=1;fontColor=#FFFFFF;fontSize=23;" vertex="1" parent="1">
          <mxGeometry x="1456.5" y="790" width="200" height="60" as="geometry" />
        </mxCell>
        <mxCell id="yfqfKN1hTtihbw3j2L1H-68" value="" style="edgeStyle=elbowEdgeStyle;elbow=vertical;strokeWidth=4;endArrow=block;endFill=1;fontStyle=1;strokeColor=#23445D;" edge="1" parent="1">
          <mxGeometry x="22" y="165.5" width="100" height="100" as="geometry">
            <mxPoint x="1754" y="570" as="sourcePoint" />
            <mxPoint x="1556" y="790" as="targetPoint" />
            <Array as="points">
              <mxPoint x="1546" y="670" />
            </Array>
          </mxGeometry>
        </mxCell>
        <mxCell id="yfqfKN1hTtihbw3j2L1H-69" value="" style="edgeStyle=elbowEdgeStyle;elbow=vertical;strokeWidth=4;endArrow=block;endFill=1;fontStyle=1;strokeColor=#23445D;" edge="1" parent="1">
          <mxGeometry x="22" y="165.5" width="100" height="100" as="geometry">
            <mxPoint x="1756" y="570" as="sourcePoint" />
            <mxPoint x="1906" y="790" as="targetPoint" />
            <Array as="points">
              <mxPoint x="1876" y="670" />
            </Array>
          </mxGeometry>
        </mxCell>
        <mxCell id="yfqfKN1hTtihbw3j2L1H-70" value="مسؤول المخزون" style="rounded=1;fillColor=#10739E;strokeColor=none;shadow=1;gradientColor=none;fontStyle=1;fontColor=#FFFFFF;fontSize=23;" vertex="1" parent="1">
          <mxGeometry x="1798" y="790" width="200" height="60" as="geometry" />
        </mxCell>
        <mxCell id="yfqfKN1hTtihbw3j2L1H-73" value="فني تسويق" style="rounded=1;fillColor=#10739E;strokeColor=none;shadow=1;gradientColor=none;fontStyle=1;fontColor=#FFFFFF;fontSize=23;" vertex="1" parent="1">
          <mxGeometry x="2068" y="790" width="200" height="60" as="geometry" />
        </mxCell>
        <mxCell id="yfqfKN1hTtihbw3j2L1H-74" value="" style="edgeStyle=elbowEdgeStyle;elbow=vertical;strokeWidth=4;endArrow=block;endFill=1;fontStyle=1;strokeColor=#23445D;" edge="1" parent="1">
          <mxGeometry x="22" y="165.5" width="100" height="100" as="geometry">
            <mxPoint x="2365.5" y="570" as="sourcePoint" />
            <mxPoint x="2167.5" y="790" as="targetPoint" />
            <Array as="points">
              <mxPoint x="2157.5" y="670" />
            </Array>
          </mxGeometry>
        </mxCell>
        <mxCell id="yfqfKN1hTtihbw3j2L1H-75" value="" style="edgeStyle=elbowEdgeStyle;elbow=vertical;strokeWidth=4;endArrow=block;endFill=1;fontStyle=1;strokeColor=#23445D;" edge="1" parent="1">
          <mxGeometry x="22" y="165.5" width="100" height="100" as="geometry">
            <mxPoint x="2367.5" y="570" as="sourcePoint" />
            <mxPoint x="2517.5" y="790" as="targetPoint" />
            <Array as="points">
              <mxPoint x="2487.5" y="670" />
            </Array>
          </mxGeometry>
        </mxCell>
        <mxCell id="yfqfKN1hTtihbw3j2L1H-76" value="مسؤول التسويق" style="rounded=1;fillColor=#10739E;strokeColor=none;shadow=1;gradientColor=none;fontStyle=1;fontColor=#FFFFFF;fontSize=23;" vertex="1" parent="1">
          <mxGeometry x="2409.5" y="790" width="200" height="60" as="geometry" />
        </mxCell>
        <mxCell id="yfqfKN1hTtihbw3j2L1H-79" value="فني تسويق" style="rounded=1;fillColor=#10739E;strokeColor=none;shadow=1;gradientColor=none;fontStyle=1;fontColor=#FFFFFF;fontSize=23;" vertex="1" parent="1">
          <mxGeometry x="2664" y="790" width="200" height="60" as="geometry" />
        </mxCell>
        <mxCell id="yfqfKN1hTtihbw3j2L1H-80" value="" style="edgeStyle=elbowEdgeStyle;elbow=vertical;strokeWidth=4;endArrow=block;endFill=1;fontStyle=1;strokeColor=#23445D;" edge="1" parent="1">
          <mxGeometry x="22" y="165.5" width="100" height="100" as="geometry">
            <mxPoint x="2961.5" y="570" as="sourcePoint" />
            <mxPoint x="2763.5" y="790" as="targetPoint" />
            <Array as="points">
              <mxPoint x="2753.5" y="670" />
            </Array>
          </mxGeometry>
        </mxCell>
        <mxCell id="yfqfKN1hTtihbw3j2L1H-81" value="" style="edgeStyle=elbowEdgeStyle;elbow=vertical;strokeWidth=4;endArrow=block;endFill=1;fontStyle=1;strokeColor=#23445D;" edge="1" parent="1">
          <mxGeometry x="22" y="165.5" width="100" height="100" as="geometry">
            <mxPoint x="2963.5" y="570" as="sourcePoint" />
            <mxPoint x="3113.5" y="790" as="targetPoint" />
            <Array as="points">
              <mxPoint x="3083.5" y="670" />
            </Array>
          </mxGeometry>
        </mxCell>
        <mxCell id="yfqfKN1hTtihbw3j2L1H-82" value="مسؤول التسويق" style="rounded=1;fillColor=#10739E;strokeColor=none;shadow=1;gradientColor=none;fontStyle=1;fontColor=#FFFFFF;fontSize=23;" vertex="1" parent="1">
          <mxGeometry x="3005.5" y="790" width="200" height="60" as="geometry" />
        </mxCell>
        <mxCell id="ZCKrDeIpCWeYV9Xbzh9A-53" value="&lt;font style=&quot;--darkreader-inline-color: #f4f2ee; font-size: 28px;&quot; data-darkreader-inline-color=&quot;&quot;&gt;المدير العام&lt;/font&gt;" style="rounded=1;whiteSpace=wrap;html=1;shadow=0;labelBackgroundColor=none;strokeColor=none;strokeWidth=3;fillColor=#3399FF;fontFamily=Helvetica;fontSize=16;fontColor=#FFFFFF;align=center;fontStyle=1;spacing=5;arcSize=7;perimeterSpacing=2;" vertex="1" parent="1">
          <mxGeometry x="1685" y="1050" width="200" height="100" as="geometry" />
        </mxCell>
        <mxCell id="ZCKrDeIpCWeYV9Xbzh9A-54" value="" style="edgeStyle=none;rounded=0;jumpStyle=none;html=1;shadow=0;labelBackgroundColor=none;startArrow=none;startFill=0;endArrow=classic;endFill=1;jettySize=auto;orthogonalLoop=1;strokeColor=#1699D3;strokeWidth=3;fontFamily=Helvetica;fontSize=14;fontColor=#FFFFFF;spacing=5;exitX=0.499;exitY=0.976;exitDx=0;exitDy=0;exitPerimeter=0;entryX=0.502;entryY=0.04;entryDx=0;entryDy=0;entryPerimeter=0;" edge="1" parent="1" source="ZCKrDeIpCWeYV9Xbzh9A-53">
          <mxGeometry relative="1" as="geometry">
            <mxPoint x="1785.3080000000004" y="1310.56" as="targetPoint" />
            <Array as="points" />
          </mxGeometry>
        </mxCell>
        <mxCell id="ZCKrDeIpCWeYV9Xbzh9A-55" value="&lt;font style=&quot;font-size: 22px;&quot;&gt;إدارة المبيعات&lt;/font&gt;" style="rounded=1;whiteSpace=wrap;html=1;shadow=0;labelBackgroundColor=none;strokeColor=none;strokeWidth=3;fillColor=#3399FF;fontFamily=Helvetica;fontSize=14;fontColor=#FFFFFF;align=center;spacing=5;fontStyle=1;arcSize=7;perimeterSpacing=2;" vertex="1" parent="1">
          <mxGeometry x="1190" y="1310" width="170" height="70" as="geometry" />
        </mxCell>
        <mxCell id="ZCKrDeIpCWeYV9Xbzh9A-56" value="" style="edgeStyle=none;rounded=0;jumpStyle=none;html=1;shadow=0;labelBackgroundColor=none;startArrow=none;startFill=0;endArrow=classic;endFill=1;jettySize=auto;orthogonalLoop=1;strokeColor=#1699D3;strokeWidth=3;fontFamily=Helvetica;fontSize=14;fontColor=#FFFFFF;spacing=5;entryX=0.472;entryY=0.021;entryDx=0;entryDy=0;entryPerimeter=0;" edge="1" parent="1">
          <mxGeometry relative="1" as="geometry">
            <mxPoint x="1511" y="1210" as="sourcePoint" />
            <mxPoint x="1509.5679999999998" y="1309.7640000000001" as="targetPoint" />
            <Array as="points">
              <mxPoint x="1510" y="1280" />
            </Array>
          </mxGeometry>
        </mxCell>
        <mxCell id="ZCKrDeIpCWeYV9Xbzh9A-57" value="" style="edgeStyle=none;rounded=0;jumpStyle=none;html=1;shadow=0;labelBackgroundColor=none;startArrow=none;startFill=0;endArrow=classic;endFill=1;jettySize=auto;orthogonalLoop=1;strokeColor=#1699D3;strokeWidth=3;fontFamily=Helvetica;fontSize=14;fontColor=#FFFFFF;spacing=5;" edge="1" parent="1">
          <mxGeometry relative="1" as="geometry">
            <mxPoint x="2190.7476635514017" y="1210" as="sourcePoint" />
            <mxPoint x="1270" y="1310" as="targetPoint" />
            <Array as="points">
              <mxPoint x="1270" y="1210" />
            </Array>
          </mxGeometry>
        </mxCell>
        <mxCell id="ZCKrDeIpCWeYV9Xbzh9A-58" value="" style="edgeStyle=none;rounded=0;jumpStyle=none;html=1;shadow=0;labelBackgroundColor=none;startArrow=none;startFill=0;endArrow=classic;endFill=1;jettySize=auto;orthogonalLoop=1;strokeColor=#1699D3;strokeWidth=3;fontFamily=Helvetica;fontSize=14;fontColor=#FFFFFF;spacing=5;entryX=0.472;entryY=0.021;entryDx=0;entryDy=0;entryPerimeter=0;" edge="1" parent="1">
          <mxGeometry relative="1" as="geometry">
            <mxPoint x="2153.89" y="1211" as="sourcePoint" />
            <mxPoint x="2153.89" y="1310" as="targetPoint" />
            <Array as="points" />
          </mxGeometry>
        </mxCell>
        <mxCell id="ZCKrDeIpCWeYV9Xbzh9A-59" value="" style="edgeStyle=none;rounded=0;jumpStyle=none;html=1;shadow=0;labelBackgroundColor=none;startArrow=none;startFill=0;endArrow=classic;endFill=1;jettySize=auto;orthogonalLoop=1;strokeColor=#1699D3;strokeWidth=3;fontFamily=Helvetica;fontSize=14;fontColor=#FFFFFF;spacing=5;startSize=6;endSize=6;entryX=0.467;entryY=0.034;entryDx=0;entryDy=0;entryPerimeter=0;" edge="1" parent="1">
          <mxGeometry relative="1" as="geometry">
            <mxPoint x="2190" y="1209.82" as="sourcePoint" />
            <mxPoint x="2563.418" y="1299.9959999999999" as="targetPoint" />
            <Array as="points">
              <mxPoint x="2563" y="1209.82" />
            </Array>
          </mxGeometry>
        </mxCell>
        <mxCell id="ZCKrDeIpCWeYV9Xbzh9A-60" value="&lt;font style=&quot;font-size: 25px;&quot;&gt;مدير قسم&lt;/font&gt;" style="rounded=1;whiteSpace=wrap;html=1;shadow=0;labelBackgroundColor=none;strokeColor=none;strokeWidth=3;fillColor=#3399FF;fontFamily=Helvetica;fontSize=14;fontColor=#FFFFFF;align=center;spacing=5;fontStyle=1;arcSize=7;perimeterSpacing=2;" vertex="1" parent="1">
          <mxGeometry x="1310" y="1490" width="170" height="80" as="geometry" />
        </mxCell>
        <mxCell id="ZCKrDeIpCWeYV9Xbzh9A-61" value="" style="edgeStyle=none;rounded=0;jumpStyle=none;html=1;shadow=0;labelBackgroundColor=none;startArrow=none;startFill=0;endArrow=classic;endFill=1;jettySize=auto;orthogonalLoop=1;strokeColor=#1699D3;strokeWidth=3;fontFamily=Helvetica;fontSize=14;fontColor=#FFFFFF;spacing=5;entryX=0.53;entryY=0.039;entryDx=0;entryDy=0;entryPerimeter=0;exitX=0.468;exitY=0.985;exitDx=0;exitDy=0;exitPerimeter=0;" edge="1" parent="1" source="ZCKrDeIpCWeYV9Xbzh9A-55" target="ZCKrDeIpCWeYV9Xbzh9A-60">
          <mxGeometry relative="1" as="geometry">
            <mxPoint x="1320" y="1430" as="sourcePoint" />
            <mxPoint x="1510" y="1470" as="targetPoint" />
            <Array as="points">
              <mxPoint x="1270" y="1430" />
              <mxPoint x="1400" y="1430" />
            </Array>
          </mxGeometry>
        </mxCell>
        <mxCell id="ZCKrDeIpCWeYV9Xbzh9A-62" value="" style="edgeStyle=none;rounded=0;jumpStyle=none;html=1;shadow=0;labelBackgroundColor=none;startArrow=none;startFill=0;endArrow=classic;endFill=1;jettySize=auto;orthogonalLoop=1;strokeColor=#1699D3;strokeWidth=3;fontFamily=Helvetica;fontSize=14;fontColor=#FFFFFF;spacing=5;entryX=0.605;entryY=0.025;entryDx=0;entryDy=0;entryPerimeter=0;" edge="1" parent="1">
          <mxGeometry relative="1" as="geometry">
            <mxPoint x="1280" y="1430" as="sourcePoint" />
            <mxPoint x="1161.17" y="1489.6000000000001" as="targetPoint" />
            <Array as="points">
              <mxPoint x="1161" y="1430" />
            </Array>
          </mxGeometry>
        </mxCell>
        <mxCell id="ZCKrDeIpCWeYV9Xbzh9A-63" value="" style="edgeStyle=none;rounded=0;jumpStyle=none;html=1;shadow=0;labelBackgroundColor=none;startArrow=none;startFill=0;endArrow=classic;endFill=1;jettySize=auto;orthogonalLoop=1;strokeColor=#1699D3;strokeWidth=3;fontFamily=Helvetica;fontSize=14;fontColor=#FFFFFF;spacing=5;entryX=0.531;entryY=0.021;entryDx=0;entryDy=0;exitX=0.527;exitY=0.968;exitDx=0;exitDy=0;exitPerimeter=0;entryPerimeter=0;" edge="1" parent="1" source="ZCKrDeIpCWeYV9Xbzh9A-70" target="ZCKrDeIpCWeYV9Xbzh9A-75">
          <mxGeometry relative="1" as="geometry">
            <mxPoint x="1790" y="1380" as="sourcePoint" />
            <mxPoint x="1888.6200000000003" y="1490.496" as="targetPoint" />
            <Array as="points">
              <mxPoint x="1789" y="1430" />
              <mxPoint x="1880" y="1430" />
            </Array>
          </mxGeometry>
        </mxCell>
        <mxCell id="ZCKrDeIpCWeYV9Xbzh9A-64" value="" style="edgeStyle=none;rounded=0;jumpStyle=none;html=1;shadow=0;labelBackgroundColor=none;startArrow=none;startFill=0;endArrow=classic;endFill=1;jettySize=auto;orthogonalLoop=1;strokeColor=#1699D3;strokeWidth=3;fontFamily=Helvetica;fontSize=14;fontColor=#FFFFFF;spacing=5;entryX=0.534;entryY=0.039;entryDx=0;entryDy=0;entryPerimeter=0;" edge="1" parent="1">
          <mxGeometry relative="1" as="geometry">
            <mxPoint x="1790" y="1429.5" as="sourcePoint" />
            <mxPoint x="1681.2359999999999" y="1489.996" as="targetPoint" />
            <Array as="points">
              <mxPoint x="1681" y="1429.5" />
            </Array>
          </mxGeometry>
        </mxCell>
        <mxCell id="ZCKrDeIpCWeYV9Xbzh9A-65" value="" style="edgeStyle=none;rounded=0;jumpStyle=none;html=1;shadow=0;labelBackgroundColor=none;startArrow=none;startFill=0;endArrow=classic;endFill=1;jettySize=auto;orthogonalLoop=1;strokeColor=#1699D3;strokeWidth=3;fontFamily=Helvetica;fontSize=14;fontColor=#FFFFFF;spacing=5;entryX=0.53;entryY=0.039;entryDx=0;entryDy=0;entryPerimeter=0;exitX=0.529;exitY=0.966;exitDx=0;exitDy=0;exitPerimeter=0;" edge="1" parent="1">
          <mxGeometry relative="1" as="geometry">
            <mxPoint x="2160" y="1370" as="sourcePoint" />
            <mxPoint x="2260.6200000000003" y="1490.496" as="targetPoint" />
            <Array as="points">
              <mxPoint x="2161" y="1430" />
              <mxPoint x="2261" y="1430" />
            </Array>
          </mxGeometry>
        </mxCell>
        <mxCell id="ZCKrDeIpCWeYV9Xbzh9A-66" value="" style="edgeStyle=none;rounded=0;jumpStyle=none;html=1;shadow=0;labelBackgroundColor=none;startArrow=none;startFill=0;endArrow=classic;endFill=1;jettySize=auto;orthogonalLoop=1;strokeColor=#1699D3;strokeWidth=3;fontFamily=Helvetica;fontSize=14;fontColor=#FFFFFF;spacing=5;entryX=0.534;entryY=0.039;entryDx=0;entryDy=0;entryPerimeter=0;" edge="1" parent="1">
          <mxGeometry relative="1" as="geometry">
            <mxPoint x="2169" y="1430" as="sourcePoint" />
            <mxPoint x="2060.236" y="1490.496" as="targetPoint" />
            <Array as="points">
              <mxPoint x="2060" y="1430" />
            </Array>
          </mxGeometry>
        </mxCell>
        <mxCell id="ZCKrDeIpCWeYV9Xbzh9A-67" value="" style="edgeStyle=none;rounded=0;jumpStyle=none;html=1;shadow=0;labelBackgroundColor=none;startArrow=none;startFill=0;endArrow=classic;endFill=1;jettySize=auto;orthogonalLoop=1;strokeColor=#1699D3;strokeWidth=3;fontFamily=Helvetica;fontSize=14;fontColor=#FFFFFF;spacing=5;entryX=0.53;entryY=0.039;entryDx=0;entryDy=0;entryPerimeter=0;exitX=0.534;exitY=0.97;exitDx=0;exitDy=0;exitPerimeter=0;" edge="1" parent="1" source="ZCKrDeIpCWeYV9Xbzh9A-72">
          <mxGeometry relative="1" as="geometry">
            <mxPoint x="2580" y="1370" as="sourcePoint" />
            <mxPoint x="2680.62" y="1490.496" as="targetPoint" />
            <Array as="points">
              <mxPoint x="2560" y="1420" />
              <mxPoint x="2681" y="1420" />
            </Array>
          </mxGeometry>
        </mxCell>
        <mxCell id="ZCKrDeIpCWeYV9Xbzh9A-68" value="" style="edgeStyle=none;rounded=0;jumpStyle=none;html=1;shadow=0;labelBackgroundColor=none;startArrow=none;startFill=0;endArrow=classic;endFill=1;jettySize=auto;orthogonalLoop=1;strokeColor=#1699D3;strokeWidth=3;fontFamily=Helvetica;fontSize=14;fontColor=#FFFFFF;spacing=5;entryX=0.583;entryY=-0.009;entryDx=0;entryDy=0;entryPerimeter=0;" edge="1" parent="1" target="ZCKrDeIpCWeYV9Xbzh9A-78">
          <mxGeometry relative="1" as="geometry">
            <mxPoint x="2578" y="1420" as="sourcePoint" />
            <mxPoint x="2469.2360000000003" y="1480.496" as="targetPoint" />
            <Array as="points">
              <mxPoint x="2469" y="1420" />
            </Array>
          </mxGeometry>
        </mxCell>
        <mxCell id="ZCKrDeIpCWeYV9Xbzh9A-69" value="&lt;span style=&quot;font-size: 21px;&quot;&gt;إدارة المشتريات&lt;/span&gt;" style="rounded=1;whiteSpace=wrap;html=1;shadow=0;labelBackgroundColor=none;strokeColor=none;strokeWidth=3;fillColor=#3399FF;fontFamily=Helvetica;fontSize=14;fontColor=#FFFFFF;align=center;spacing=5;fontStyle=1;arcSize=7;perimeterSpacing=2;" vertex="1" parent="1">
          <mxGeometry x="1430" y="1310" width="170" height="70" as="geometry" />
        </mxCell>
        <mxCell id="ZCKrDeIpCWeYV9Xbzh9A-70" value="&lt;span style=&quot;font-size: 22px;&quot;&gt;إدارة المخزون&lt;/span&gt;" style="rounded=1;whiteSpace=wrap;html=1;shadow=0;labelBackgroundColor=none;strokeColor=none;strokeWidth=3;fillColor=#3399FF;fontFamily=Helvetica;fontSize=14;fontColor=#FFFFFF;align=center;spacing=5;fontStyle=1;arcSize=7;perimeterSpacing=2;" vertex="1" parent="1">
          <mxGeometry x="1700" y="1310" width="170" height="70" as="geometry" />
        </mxCell>
        <mxCell id="ZCKrDeIpCWeYV9Xbzh9A-71" value="&lt;span style=&quot;font-size: 22px;&quot;&gt;إدارة التسويق&lt;/span&gt;" style="rounded=1;whiteSpace=wrap;html=1;shadow=0;labelBackgroundColor=none;strokeColor=none;strokeWidth=3;fillColor=#3399FF;fontFamily=Helvetica;fontSize=14;fontColor=#FFFFFF;align=center;spacing=5;fontStyle=1;arcSize=7;perimeterSpacing=2;" vertex="1" parent="1">
          <mxGeometry x="2070" y="1310" width="170" height="70" as="geometry" />
        </mxCell>
        <mxCell id="ZCKrDeIpCWeYV9Xbzh9A-72" value="&lt;span style=&quot;font-size: 22px;&quot;&gt;إدارة العملاء&lt;/span&gt;" style="rounded=1;whiteSpace=wrap;html=1;shadow=0;labelBackgroundColor=none;strokeColor=none;strokeWidth=3;fillColor=#3399FF;fontFamily=Helvetica;fontSize=14;fontColor=#FFFFFF;align=center;spacing=5;fontStyle=1;arcSize=7;perimeterSpacing=2;" vertex="1" parent="1">
          <mxGeometry x="2470" y="1300" width="170" height="70" as="geometry" />
        </mxCell>
        <mxCell id="ZCKrDeIpCWeYV9Xbzh9A-73" value="&lt;span style=&quot;font-size: 22px;&quot;&gt;مساعد مبيعات&lt;/span&gt;" style="rounded=1;whiteSpace=wrap;html=1;shadow=0;labelBackgroundColor=none;strokeColor=none;strokeWidth=3;fillColor=#3399FF;fontFamily=Helvetica;fontSize=14;fontColor=#FFFFFF;align=center;spacing=5;fontStyle=1;arcSize=7;perimeterSpacing=2;" vertex="1" parent="1">
          <mxGeometry x="1080" y="1490" width="170" height="80" as="geometry" />
        </mxCell>
        <mxCell id="ZCKrDeIpCWeYV9Xbzh9A-74" value="&lt;font style=&quot;font-size: 24px;&quot;&gt;عامل تخزين&lt;/font&gt;" style="rounded=1;whiteSpace=wrap;html=1;shadow=0;labelBackgroundColor=none;strokeColor=none;strokeWidth=3;fillColor=#3399FF;fontFamily=Helvetica;fontSize=14;fontColor=#FFFFFF;align=center;spacing=5;fontStyle=1;arcSize=7;perimeterSpacing=2;" vertex="1" parent="1">
          <mxGeometry x="1590" y="1490" width="170" height="80" as="geometry" />
        </mxCell>
        <mxCell id="ZCKrDeIpCWeYV9Xbzh9A-75" value="&lt;span style=&quot;font-size: 22px;&quot;&gt;مسؤول المخزون&lt;/span&gt;" style="rounded=1;whiteSpace=wrap;html=1;shadow=0;labelBackgroundColor=none;strokeColor=none;strokeWidth=3;fillColor=#3399FF;fontFamily=Helvetica;fontSize=14;fontColor=#FFFFFF;align=center;spacing=5;fontStyle=1;arcSize=7;perimeterSpacing=2;" vertex="1" parent="1">
          <mxGeometry x="1790" y="1490" width="170" height="80" as="geometry" />
        </mxCell>
        <mxCell id="ZCKrDeIpCWeYV9Xbzh9A-76" value="&lt;font style=&quot;font-size: 27px;&quot;&gt;فني تسويق&lt;/font&gt;" style="rounded=1;whiteSpace=wrap;html=1;shadow=0;labelBackgroundColor=none;strokeColor=none;strokeWidth=3;fillColor=#3399FF;fontFamily=Helvetica;fontSize=14;fontColor=#FFFFFF;align=center;spacing=5;fontStyle=1;arcSize=7;perimeterSpacing=2;" vertex="1" parent="1">
          <mxGeometry x="1980" y="1490" width="170" height="80" as="geometry" />
        </mxCell>
        <mxCell id="ZCKrDeIpCWeYV9Xbzh9A-77" value="&lt;span style=&quot;font-size: 22px;&quot;&gt;مسؤول التسويق&lt;/span&gt;" style="rounded=1;whiteSpace=wrap;html=1;shadow=0;labelBackgroundColor=none;strokeColor=none;strokeWidth=3;fillColor=#3399FF;fontFamily=Helvetica;fontSize=14;fontColor=#FFFFFF;align=center;spacing=5;fontStyle=1;arcSize=7;perimeterSpacing=2;" vertex="1" parent="1">
          <mxGeometry x="2180" y="1490" width="170" height="80" as="geometry" />
        </mxCell>
        <mxCell id="ZCKrDeIpCWeYV9Xbzh9A-78" value="&lt;span style=&quot;font-size: 22px;&quot;&gt;ممثل خدمة العملاء&lt;/span&gt;" style="rounded=1;whiteSpace=wrap;html=1;shadow=0;labelBackgroundColor=none;strokeColor=none;strokeWidth=3;fillColor=#3399FF;fontFamily=Helvetica;fontSize=14;fontColor=#FFFFFF;align=center;spacing=5;fontStyle=1;arcSize=7;perimeterSpacing=2;" vertex="1" parent="1">
          <mxGeometry x="2370" y="1490" width="170" height="80" as="geometry" />
        </mxCell>
        <mxCell id="ZCKrDeIpCWeYV9Xbzh9A-79" value="&lt;span style=&quot;font-size: 22px;&quot;&gt;مسؤول خدمة العملاء&lt;/span&gt;" style="rounded=1;whiteSpace=wrap;html=1;shadow=0;labelBackgroundColor=none;strokeColor=none;strokeWidth=3;fillColor=#3399FF;fontFamily=Helvetica;fontSize=14;fontColor=#FFFFFF;align=center;spacing=5;fontStyle=1;arcSize=7;perimeterSpacing=2;" vertex="1" parent="1">
          <mxGeometry x="2590" y="1490" width="170" height="80" as="geometry" />
        </mxCell>
      </root>
    </mxGraphModel>
  </diagram>
</mxfile>
